# xmcd CD database file
#
# Track frame offsets:
#	150
#	11493
#	22572
#	37482
#	41532
#	56747
#	76448
#	86447
#	107078
#	120895
#	135044
#	148411
#	161168
#
# Disc length: 2177 seconds
#
# Revision: 0
# Processed by: cddbd v1.5.1PL0 Copyright (c) Steve Scherf et al.
# Submitted via: CDex 1.51
#
DISCID=9f087f0d
DTITLE=Berghem Blues - Tolasound
DYEAR=2004
DGENRE=Blues
TTITLE0=411
TTITLE1=La Benula
TTITLE2=La Cera Grey
TTITLE3=L'Arca
TTITLE4=A Cucai
TTITLE5=Sota Al Taol
TTITLE6=Misirlou
TTITLE7=La Barbie
TTITLE8=Al Pirata
TTITLE9=Beca
TTITLE10=Al Gumista
TTITLE11=La Guera An Ca'
TTITLE12=Cesso
EXTD=YEAR: 2004
EXTT0=
EXTT1=
EXTT2=
EXTT3=
EXTT4=
EXTT5=
EXTT6=
EXTT7=
EXTT8=
EXTT9=
EXTT10=
EXTT11=
EXTT12=
PLAYORDER=
